<svg xmlns="http://www.w3.org/2000/svg" version="1.0" viewBox="0 0 878.88 595.5">
  <path fill="#000" d="M172.365 114.018c-1.246.098-3.754.043-5.746.2-28.621 2.23-57.984 30.308-67.734 65.87-12.48 42.29-.856 85.454 29.332 96.875 27.351 10.391 53.78-.683 68.336-19.593 10.937-13.875 8.246-25.934 1.71-29.434-5.457-2.578-11.832-.828-14.468 3.883-7.813 18.637-19.524 29.066-33.332 25.383-10.055-3.723-20.602-20.18-17.453-53.727 4.992-45.21 26.546-67.426 40.238-68.492 8.21-.637 12.926 5.254 13.832 10.441 1.172 5.418-.309 15.301-7.121 21.09-3.48 3.524-.196 16.79 13.25 19 12.426 2.035 21.383-5.172 23.879-14.883 5.152-20.683-4.227-54.257-44.723-56.613Zm114.772 46.152c-3.813-.708-7.375-1.43-10.61-1.18l-4.48.351c-22.8 3.028-44.36 21.985-51.191 46.805-8.625 30.719 7.199 60.285 35.406 65.601 27.484 5.622 56.87-15.699 65.515-46.168 9.106-31.007-6.703-60.328-34.64-65.41Zm-5.707 77.816c-7.871 17.89-18.973 23.261-25.07 12.468-5.356-10.847-2.817-39.343 5.324-57.003 5.367-11.438 11.87-17.954 17.386-17.88.996-.077 1.512.13 2.07.84 2.298.57 4.157 1.93 5.383 4.836 5.622 11.082 3.043 39.079-5.093 56.739ZM420.705 103.69c3.223 6.007-3.219 35.808-10.101 66.394-2.899-8.29-9.07-13.567-15.965-15.285-18.98-5.782-48.641 12.05-57.63 41.297-9.507 29.039-.148 65.617 30.352 64.996 12.485-.473 21.97-10.477 28.032-19.461.496-.04.48-.29.48-.29.074.997-.344 2.032.23 2.989.407 5.226 3.266 9.762 10.446 11.957 12.047 3.566 31.246-3.938 30.555-6.387-4.09-10.699-1.641-30.672 3.183-52.332 7.094-31.101 16.121-63.105 18.785-77.086 5.985-29.261-42.586-25.98-38.367-16.793ZM377.3 240.786c-.746.055-1.512-.133-2.528-.305-2.05-.593-3.93-2.199-5.386-4.84-6.02-9.796-3.63-30.515 5.125-46.722 8.773-15.957 20.926-20.66 26.699-10.844 6.004 9.547 3.648 30.766-5.164 46.227-5.906 10.976-13.004 16.285-18.746 16.484Zm93.368-87.151c6.754 12.746-15.844 69.844-14.336 86 .656 5.211 3.516 9.746 10.945 11.918 11.801 3.59 32.243-4.012 30.782-6.652-3.82-10.469-1.442-28.184 2.406-46.262 2.766-12.734 7.293-25.355 7.84-31.16 6.043-28.516-41.38-23.32-37.637-13.844Zm28.441-52.797c-12.543-.273-23.257 6.82-24.261 16.414-.508 9.555 9.207 18.563 21.539 19.356 12.351 1.039 23.027-6.55 23.761-16.375.528-9.305-8.652-17.856-21.039-19.395Zm106.261 36.547c-17.383 1.851-34.922 20.996-42.227 33.336a58.128 58.128 0 0 0 1.813-8.907c4.226-22.863-36.883-23.417-32.45-14.75 5.774 13.075-17.847 76.262-16.496 87.172.692 5.707 3.57 10.493 11 12.664 12.258 3.055 29.333-2.785 28.352-5.71-2.629-4.805-2.16-14.856-.828-26.731l.02.25c2.503-22.48 44.73-75.098 38.535-45.32-5.7 26.484-16.512 51.617-15.106 60.023.715 5.953 3.32 10.508 10.735 12.434 11.777 3.34 29.597-2.555 28.12-5.446-4.855-10.89 3.919-46.128 10.598-69.687 5.61-21.219-4.183-31.223-22.066-29.328Zm148.32-31.087c-5.258-12.86-31.59-16.57-49.329-3.168-9.66 7.762-11.504 19.426-5.449 26.465l-2.738.215c-25.844 2.512-49.84 19.156-56.922 40.742-6.031 19 3.348 36.547 21.738 44.38-6.07 2.476-11.484 6.905-11.746 13.183-.851 8.332 5.508 12.843 12.957 15.27 6.649 1.734 17.504 2.89 25.317 3.534 7.046.454 20.433 1.914 21.167 8.118.618 7.964-8.714 16.703-29.453 17.32-12.464.719-20.05-3.45-21.605-10.59-.961-2.68-.484-6.223 1.52-9.383 1.687-.883 1.011-3.082-.579-4.21-8.449-5.602-30.406-1.387-33.64 18.144-3.047 18.77 14.277 35.445 49.66 33.191 31.879-2.23 63.488-20.719 66.531-42.742.64-11.066-6.09-20.309-17.656-24.164-14.942-5.348-36.996-2.379-42.988-2.16-3.73.289-4.555-.649-4.922-2.121-.328-.977-.157-1.992.304-2.528 6.024-6.23 47.192-4.93 65.793-36.175 2.465-3.7 4.453-7.11 5.387-11.188 6.91-20.57-4.805-39.187-25.625-46.082-12.238-6.055-10.625-17.45-2.41-18.09 8.234-.39 14.96 8.852 11.406 14.637 13.277 6.477 28.406-8.223 23.281-22.598Zm-73.954 53.586c6.14-7.988 15.57-15.484 22.082-15.492.996-.074 2.012.094 2.758.04 2.527.3 5.094 1.105 6.492 2.995 7.34 7.442 4.032 29.235-5.035 41.461-9.691 13.774-23.148 17.828-30.45 10.883-7.339-7.438-5.312-26.379 4.153-39.887ZM218.129 320.592c3.836 7.461-6.348 50.325-15.004 87.055-12.621-23.805-24.277-57.703-30.05-70.777-5.727-18.832-40.723-14.856-37.075-6.625 5.985 12.554-26.816 128.289-25.348 143.949.715 5.957 3.59 10.738 11.004 12.664 11.778 3.34 29.75-3.816 28.77-6.746-3.82-10.469-.856-33.488 4.2-55.414 1.98-9.922 4.612-21.145 6.843-31.082.324.976.652 1.95.937 2.43 17.88 33.414 22.516 57.59 30.38 71.753 2.917 5.282 5.847 7.555 9.16 8.301.5-.039 1.035.418 1.285.399 11.777 3.34 30-3.84 28.808-6.25-3.82-10.47-1.14-30.711 3.664-52.618 7.094-31.101 16.903-65.921 19.32-79.882 6.231-29.282-40.578-25.887-36.894-17.157Zm102.17 41.872c-3.813-.707-7.375-1.43-10.61-1.18l-4.48.352c-22.8 3.027-44.36 21.984-51.191 46.805-8.625 30.718 7.199 60.285 35.406 65.601 27.484 5.621 56.87-15.699 65.515-46.168 9.106-31.008-6.703-60.328-34.64-65.41Zm-5.707 77.817c-7.871 17.89-18.973 23.261-25.07 12.468-5.356-10.847-2.817-39.343 5.324-57.004 5.367-11.437 11.87-17.953 17.386-17.879.996-.078 1.512.13 2.07.84 2.298.57 4.157 1.93 5.384 4.836 5.62 11.082 3.042 39.078-5.094 56.739Zm188.756-90.574c-15.641 1.718-27.86 18.445-34.645 30.992 4.52-19.129-5.2-28.14-22.312-26.055-14.895 1.66-24.801 15.953-30.63 27.926.383-1.531.727-3.562.669-4.309 4.226-22.863-36.883-23.418-32.45-14.75 5.774 13.075-17.867 76.012-16.515 86.926.71 5.953 3.57 10.488 11 12.664 12.258 3.051 29.312-3.035 28.351-5.715-2.648-5.05-1.836-17.136-.086-30.043 5.875-24.246 33.192-68.94 27.11-40.921-5.43 26.714-12.508 51.554-11.102 59.96.692 5.704 2.805 10.297 10.98 12.415 11.532 3.359 28.852-2.497 27.876-5.426-2.649-5.055-2.696-15.317-1.637-27.418 4.687-23.403 37.113-73.254 31.129-43.992-5.969 26.257-15.707 52.308-14.531 60.98.406 5.227 3.515 9.742 10.695 11.938 11.797 3.586 29.598-2.559 28.39-5.22-5.37-11.097 2.864-46.796 9.794-70.374 5.59-21.469-3.438-31.281-22.086-29.578Zm92.142-9.681c-18.535-.058-37.41 5.168-44.632 18.5-3.746 6.551-2.934 17.004 15.05 19.61 5.809-12.22 12.907-17.532 21.77-19.473 11.523-3.152 15.797 3.527 15.039 9.848-2.434 16.964-52.523 16.859-68.371 41.632-11.836 18.45.672 40.762 23.457 40.743 13.746-.32 23.715-7.36 29.832-15.598 1.039 3.676 2.918 8.539 10.102 10.734 12.527 3.282 30.593-2.636 29.613-5.562-6.867-14.238 7.656-62.446 9.508-70.856 3.046-15.511-16.63-30.254-41.368-29.578Zm-20.785 86.754c-10.168 1.293-16.343-10.496-6.777-19.504 7.707-7.11 24.246-10.152 27.324-15.648-.973 3.582-1.695 7.14-2.707 10.226.02.25-.441.785-.574 2.297-3.32 12.028-9.57 21.781-17.266 22.63Zm0 0"/>
  <path fill="#000" d="M728.64 284.581c3.222 6.008-3.22 35.809-10.102 66.395-2.898-8.29-9.07-13.567-15.965-15.285-18.98-5.782-48.64 12.05-57.629 41.297-9.508 29.039-.148 65.617 30.352 64.996 12.484-.473 21.969-10.477 28.031-19.461.496-.04.48-.29.48-.29.075.997-.343 2.032.231 2.989.406 5.227 3.266 9.762 10.445 11.957 12.047 3.566 31.246-3.937 30.555-6.387-4.09-10.699-1.64-30.672 3.184-52.332 7.093-31.101 16.12-63.105 18.785-77.086 5.984-29.261-42.586-25.98-38.367-16.793ZM685.233 421.68c-.746.055-1.511-.133-2.527-.305-2.05-.593-3.93-2.199-5.387-4.84-6.02-9.796-3.629-30.515 5.125-46.722 8.774-15.957 20.926-20.66 26.7-10.844 6.003 9.547 3.648 30.766-5.165 46.227-5.906 10.976-13.003 16.285-18.746 16.484Zm0 0"/>
</svg>